<?xml version="1.0" standalone="no"?>
<!DOCTYPE svg PUBLIC "-//W3C//DTD SVG 20010904//EN"
 "http://www.w3.org/TR/2001/REC-SVG-20010904/DTD/svg10.dtd">
<svg version="1.0" xmlns="http://www.w3.org/2000/svg"
 width="455.000000pt" height="455.000000pt" viewBox="0 0 455.000000 455.000000"
 preserveAspectRatio="xMidYMid meet">
<metadata>
Created by potrace 1.11, written by Peter Selinger 2001-2013
</metadata>
<g transform="translate(0.000000,455.000000) scale(0.100000,-0.100000)"
fill="#000000" stroke="none">
<path d="M2158 4073 c-78 -58 -278 -257 -340 -338 -290 -382 -417 -798 -387
-1262 19 -296 114 -602 257 -836 23 -37 42 -69 42 -71 0 -3 -26 -11 -57 -18
-39 -9 -128 -13 -268 -12 -203 0 -214 1 -330 32 -66 18 -135 32 -153 32 -66 0
-138 -50 -161 -113 -26 -68 1 -163 58 -205 71 -52 310 -101 531 -109 494 -17
966 166 1309 507 146 145 217 241 359 489 8 15 137 -127 203 -225 136 -202
193 -353 259 -688 13 -65 58 -124 110 -146 47 -19 123 -8 165 25 82 62 90 112
50 311 -78 383 -268 735 -537 990 -233 221 -527 382 -850 464 -128 33 -273 50
-437 50 l-153 0 7 38 c11 60 74 221 117 302 102 189 212 323 382 469 74 63 98
90 111 125 44 116 -46 236 -177 236 -39 0 -56 -7 -110 -47z m132 -1508 c113
-25 244 -71 347 -121 l93 -44 -41 -83 c-120 -238 -314 -450 -533 -581 -33 -20
-65 -36 -72 -36 -14 0 -103 139 -152 236 -72 143 -133 370 -148 553 -5 65 -3
85 7 93 24 15 414 3 499 -17z"/>
</g>
</svg>
